<svg xmlns="http://www.w3.org/2000/svg" xmlns:xlink="http://www.w3.org/1999/xlink" width="150" zoomAndPan="magnify" viewBox="0 0 112.5 37.5" height="50" preserveAspectRatio="xMidYMid meet" version="1.0"><defs><clipPath id="2ad9f2de93"><path d="M 0.492188 0 L 111.511719 0 L 111.511719 37 L 0.492188 37 Z M 0.492188 0 " clip-rule="nonzero"/></clipPath></defs><g clip-path="url(#2ad9f2de93)"><path fill="#0a0c00" d="M 0.597656 0 L 111.410156 0 L 111.410156 36.9375 L 0.597656 36.9375 Z M 0.597656 0 " fill-opacity="1" fill-rule="nonzero"/></g><path fill="#ffffff" d="M 64.101562 13.835938 L 64.054688 13.949219 L 64.136719 13.949219 Z M 64.101562 13.835938 " fill-opacity="1" fill-rule="nonzero"/><path fill="#ffffff" d="M 46.910156 15.1875 L 40.503906 15.1875 L 40.503906 16.738281 L 47.433594 16.738281 Z M 46.910156 15.1875 " fill-opacity="1" fill-rule="nonzero"/><path fill="#ffffff" d="M 45.875 12.402344 L 43.015625 12.402344 L 43.015625 13.792969 L 46.421875 13.792969 Z M 45.875 12.402344 " fill-opacity="1" fill-rule="nonzero"/><path fill="#ffffff" d="M 65.660156 14.140625 L 60.074219 28.382812 L 54.398438 14.140625 L 49.074219 26.992188 L 49.984375 29.078125 L 54.355469 18.378906 L 60.03125 32.621094 L 65.738281 18.378906 L 66.183594 19.597656 L 78.691406 19.597656 L 78.691406 18.179688 L 67.171875 18.179688 L 66.640625 16.761719 L 68.3125 16.761719 L 67.800781 15.242188 L 66.074219 15.242188 Z M 65.660156 14.140625 " fill-opacity="1" fill-rule="nonzero"/><path fill="#ffffff" d="M 60.117188 23.269531 L 62.320312 18.054688 L 60.457031 18.054688 L 60.074219 19.074219 L 59.683594 18.054688 L 58.058594 18.054688 Z M 60.117188 23.269531 " fill-opacity="1" fill-rule="nonzero"/><path fill="#ffffff" d="M 63.5 15.242188 L 61.515625 15.242188 L 60.945312 16.761719 L 62.867188 16.761719 Z M 63.5 15.242188 " fill-opacity="1" fill-rule="nonzero"/><path fill="#ffffff" d="M 55.308594 11.066406 L 57.023438 11.066406 L 56.4375 9.550781 L 54.710938 9.550781 Z M 55.308594 11.066406 " fill-opacity="1" fill-rule="nonzero"/><path fill="#ffffff" d="M 65.878906 9.550781 L 63.65625 9.550781 L 63.085938 11.066406 L 66.390625 11.066406 Z M 65.878906 9.550781 " fill-opacity="1" fill-rule="nonzero"/><path fill="#ffffff" d="M 64.832031 6.433594 L 64.152344 8.25 L 65.445312 8.25 Z M 64.832031 6.433594 " fill-opacity="1" fill-rule="nonzero"/><path fill="#ffffff" d="M 71.703125 20.871094 L 66.640625 20.871094 L 67.128906 22.214844 L 71.257812 22.214844 Z M 71.703125 20.871094 " fill-opacity="1" fill-rule="nonzero"/><path fill="#ffffff" d="M 73.535156 15.261719 L 71.109375 15.261719 L 70.726562 16.761719 L 73.046875 16.761719 Z M 73.535156 15.261719 " fill-opacity="1" fill-rule="nonzero"/><path fill="#ffffff" d="M 69.882812 26.410156 L 68.644531 26.410156 L 69.292969 28.207031 Z M 69.882812 26.410156 " fill-opacity="1" fill-rule="nonzero"/><path fill="#ffffff" d="M 70.828125 23.515625 L 67.59375 23.515625 L 68.179688 25.117188 L 70.304688 25.117188 Z M 70.828125 23.515625 " fill-opacity="1" fill-rule="nonzero"/><path fill="#ffffff" d="M 56.4375 13.949219 L 58.117188 13.949219 L 57.519531 12.367188 L 55.820312 12.367188 Z M 56.4375 13.949219 " fill-opacity="1" fill-rule="nonzero"/><path fill="#ffffff" d="M 57.546875 16.761719 L 59.1875 16.761719 L 58.609375 15.242188 L 56.949219 15.242188 Z M 57.546875 16.761719 " fill-opacity="1" fill-rule="nonzero"/><path fill="#ffffff" d="M 66.824219 12.367188 L 62.601562 12.367188 L 62 13.949219 L 67.359375 13.949219 Z M 66.824219 12.367188 " fill-opacity="1" fill-rule="nonzero"/><path fill="#ffffff" d="M 47.390625 20.890625 L 38.339844 20.890625 L 38.339844 22.363281 L 47.78125 22.363281 L 48.386719 23.921875 L 54.398438 8.769531 L 54.621094 8.25 L 55.945312 8.25 L 54.445312 4.3125 L 48.429688 19.511719 L 47.855469 18.121094 L 33.316406 18.121094 L 33.316406 19.589844 L 46.871094 19.589844 Z M 47.390625 20.890625 " fill-opacity="1" fill-rule="nonzero"/></svg>