<?xml version="1.0" encoding="utf-8"?>
<!-- Generator: Adobe Illustrator 27.4.1, SVG Export Plug-In . SVG Version: 6.00 Build 0)  -->
<svg version="1.1" id="Layer_1" xmlns="http://www.w3.org/2000/svg" xmlns:xlink="http://www.w3.org/1999/xlink" x="0px" y="0px"
	 viewBox="0 0 150 50" style="enable-background:new 0 0 150 50;" xml:space="preserve">
<style type="text/css">
	.st0{fill:#FFFFFF;}
</style>
<g>
	<rect width="150" height="50"/>
	<g>
		<polygon class="st0" points="85.96,18.73 85.9,18.88 86.01,18.88 		"/>
		<polygon class="st0" points="62.69,20.56 54.02,20.56 54.02,22.66 63.4,22.66 		"/>
		<polygon class="st0" points="61.29,16.79 57.42,16.79 57.42,18.67 62.03,18.67 		"/>
		<polygon class="st0" points="88.07,19.14 80.51,38.42 72.83,19.14 65.62,36.54 66.85,39.36 72.77,24.88 80.45,44.16 88.18,24.88 
			88.78,26.53 105.71,26.53 105.71,24.61 90.12,24.61 89.4,22.69 91.66,22.69 90.97,20.63 88.63,20.63 		"/>
		<polygon class="st0" points="80.57,31.5 83.55,24.44 81.03,24.44 80.51,25.82 79.98,24.44 77.78,24.44 		"/>
		<polygon class="st0" points="85.15,20.63 82.46,20.63 81.69,22.69 84.29,22.69 		"/>
		<polygon class="st0" points="74.06,14.98 76.38,14.98 75.59,12.93 73.25,12.93 		"/>
		<polygon class="st0" points="88.37,12.93 85.36,12.93 84.59,14.98 89.06,14.98 		"/>
		<polygon class="st0" points="86.95,8.71 86.03,11.17 87.78,11.17 		"/>
		<polygon class="st0" points="96.25,28.25 89.4,28.25 90.06,30.07 95.65,30.07 		"/>
		<polygon class="st0" points="98.73,20.66 95.45,20.66 94.93,22.69 98.07,22.69 		"/>
		<polygon class="st0" points="93.79,35.75 92.11,35.75 92.99,38.18 		"/>
		<polygon class="st0" points="95.07,31.83 90.69,31.83 91.48,34 94.36,34 		"/>
		<polygon class="st0" points="75.59,18.88 77.86,18.88 77.05,16.74 74.75,16.74 		"/>
		<polygon class="st0" points="77.09,22.69 79.31,22.69 78.53,20.63 76.28,20.63 		"/>
		<polygon class="st0" points="89.65,16.74 83.93,16.74 83.12,18.88 90.37,18.88 		"/>
		<polygon class="st0" points="63.34,28.28 51.09,28.28 51.09,30.27 63.87,30.27 64.69,32.38 72.83,11.87 73.13,11.17 74.92,11.17 
			72.89,5.84 64.75,26.41 63.97,24.53 44.29,24.53 44.29,26.52 62.64,26.52 		"/>
	</g>
</g>
</svg>
